<svg width="501" height="488" viewBox="0 0 501 488" fill="none" xmlns="http://www.w3.org/2000/svg">
<circle cx="250.215" cy="244.213" r="161.564" stroke="url(#paint0_angular_711_4635)" stroke-width="12.7972"/>
<circle cx="250.215" cy="244.213" r="213.286" stroke="url(#paint1_linear_711_4635)" stroke-opacity="0.5" stroke-width="1.06643"/>
<path d="M161.701 393.513C186.94 337.881 251.495 263.302 307.802 410.043" stroke="url(#paint2_linear_711_4635)" stroke-width="1.06643"/>
<path d="M383.518 374.851C320.067 338.592 249.788 222.565 361.123 110.376" stroke="url(#paint3_linear_711_4635)" stroke-width="1.06643"/>
<path d="M430.441 207.422C389.917 200.49 361.123 213.714 344.061 228.217" stroke="url(#paint4_linear_711_4635)" stroke-width="1.06643"/>
<path d="M249.681 61.8538C261.412 127.617 246.055 274.926 90.7832 338.059" stroke="url(#paint5_linear_711_4635)" stroke-width="1.06643"/>
<path d="M194.227 76.7837C195.293 91.3582 204.144 131.172 231.018 173.829" stroke="url(#paint6_linear_711_4635)" stroke-width="1.06643"/>
<path d="M75.8535 202.089C98.0708 202.267 151.037 211.474 185.163 246.879" stroke="url(#paint7_linear_711_4635)" stroke-width="1.06643"/>
<circle cx="250.214" cy="244.213" r="155.165" fill="#0C0C0C" fill-opacity="0.4"/>
<mask id="mask0_711_4635" style="mask-type:luminance" maskUnits="userSpaceOnUse" x="217" y="194" width="69" height="69">
<path d="M217.304 194.855H285.257V262.808H217.304V194.855Z" fill="white"/>
</mask>
<g mask="url(#mask0_711_4635)">
<path d="M251.205 262.738C260.64 262.738 269.059 258.882 275.235 252.787C281.412 246.608 285.186 238.109 285.186 228.756C285.186 220.853 282.445 213.562 277.896 207.821L276.091 211.337C279.526 216.318 281.59 222.321 281.59 228.756C281.59 237.158 278.155 244.722 272.67 250.207C267.185 255.692 259.622 259.127 251.219 259.127C242.896 259.127 235.253 255.692 229.768 250.207C224.283 244.722 220.929 237.158 220.929 228.756C220.929 222.321 222.898 216.306 226.428 211.337L224.513 207.806C220.047 213.562 217.304 220.853 217.304 228.756C217.304 238.109 221.078 246.608 227.255 252.787C233.352 258.882 241.85 262.738 251.205 262.738ZM234.384 203.516L256.866 242.142L255.155 245.401L231.899 205.404C231.559 205.661 231.207 206.001 230.868 206.355L253.01 249.691L251.205 253.124L228.545 208.676L226.739 205.241C226.917 205.065 227.079 204.901 227.255 204.806C233.352 198.63 241.85 194.855 251.205 194.855C260.64 194.855 269.059 198.63 275.235 204.806C275.411 204.887 275.575 205.065 275.751 205.241L274.801 206.951L273.945 208.661L261.849 232.435L259.88 229.435L271.637 206.355C271.297 206.015 270.945 205.661 270.606 205.404L258.156 226.855L256.187 223.936L268.121 203.516C267.781 203.259 267.429 203.081 267.09 202.824L254.735 221.615L252.847 218.776L264.334 201.371C260.383 199.485 255.93 198.452 251.205 198.452C246.575 198.452 242.109 199.485 238.158 201.371L260.383 235.191L258.754 238.448L235.415 202.837C235.063 203.096 234.723 203.259 234.384 203.516Z" fill="#E4B325"/>
</g>
<path d="M205.756 288.273L200.943 275.163H203.359L207.123 285.969L210.944 275.163H213.322L208.491 288.273H205.756ZM218.722 288.273V275.163H227.187V276.98H220.969V280.744H226.625V282.523H220.969V286.456H227.187V288.273H218.722ZM237.695 288.497C236.746 288.497 235.903 288.329 235.167 287.992C234.43 287.655 233.856 287.174 233.444 286.55C233.032 285.926 232.82 285.183 232.807 284.321H235.186C235.186 284.758 235.285 285.151 235.485 285.501C235.697 285.838 235.985 286.107 236.347 286.306C236.721 286.506 237.171 286.606 237.695 286.606C238.144 286.606 238.531 286.537 238.856 286.4C239.193 286.25 239.449 286.044 239.624 285.782C239.811 285.507 239.905 285.189 239.905 284.827C239.905 284.415 239.805 284.078 239.605 283.816C239.418 283.541 239.156 283.31 238.819 283.123C238.482 282.935 238.095 282.773 237.658 282.636C237.221 282.486 236.759 282.33 236.272 282.168C235.235 281.818 234.455 281.375 233.931 280.838C233.406 280.289 233.144 279.558 233.144 278.647C233.144 277.885 233.325 277.23 233.687 276.68C234.049 276.131 234.555 275.707 235.204 275.407C235.866 275.095 236.628 274.939 237.489 274.939C238.363 274.939 239.125 275.095 239.774 275.407C240.435 275.719 240.954 276.156 241.328 276.718C241.715 277.267 241.915 277.929 241.927 278.703H239.53C239.518 278.378 239.43 278.079 239.268 277.804C239.106 277.517 238.869 277.286 238.556 277.111C238.257 276.924 237.889 276.83 237.452 276.83C237.077 276.818 236.74 276.88 236.44 277.017C236.153 277.142 235.922 277.33 235.747 277.579C235.585 277.816 235.504 278.116 235.504 278.478C235.504 278.828 235.579 279.121 235.729 279.358C235.891 279.583 236.122 279.777 236.422 279.939C236.721 280.089 237.071 280.232 237.47 280.37C237.87 280.507 238.307 280.657 238.781 280.819C239.43 281.031 240.017 281.294 240.542 281.606C241.078 281.905 241.503 282.299 241.815 282.786C242.127 283.272 242.283 283.903 242.283 284.677C242.283 285.351 242.108 285.982 241.759 286.568C241.409 287.143 240.897 287.611 240.223 287.973C239.549 288.323 238.706 288.497 237.695 288.497ZM251.084 288.273V276.98H247.226V275.163H257.17V276.98H253.312V288.273H251.084ZM262.768 288.273V275.163H265.015V288.273H262.768ZM277.371 288.497C276.11 288.497 274.992 288.217 274.018 287.655C273.057 287.08 272.302 286.288 271.752 285.276C271.203 284.253 270.928 283.066 270.928 281.718C270.928 280.382 271.203 279.209 271.752 278.197C272.302 277.174 273.057 276.374 274.018 275.8C274.992 275.226 276.11 274.939 277.371 274.939C278.657 274.939 279.786 275.226 280.76 275.8C281.734 276.374 282.489 277.174 283.026 278.197C283.563 279.209 283.832 280.382 283.832 281.718C283.832 283.066 283.563 284.253 283.026 285.276C282.489 286.288 281.734 287.08 280.76 287.655C279.786 288.217 278.657 288.497 277.371 288.497ZM277.389 286.475C278.226 286.475 278.956 286.288 279.58 285.913C280.205 285.526 280.685 284.977 281.022 284.265C281.36 283.553 281.528 282.704 281.528 281.718C281.528 280.732 281.36 279.883 281.022 279.171C280.685 278.459 280.205 277.916 279.58 277.542C278.956 277.155 278.226 276.961 277.389 276.961C276.553 276.961 275.822 277.155 275.198 277.542C274.574 277.916 274.087 278.459 273.737 279.171C273.4 279.883 273.232 280.732 273.232 281.718C273.232 282.704 273.4 283.553 273.737 284.265C274.087 284.977 274.574 285.526 275.198 285.913C275.822 286.288 276.553 286.475 277.389 286.475ZM289.773 288.273V275.163H292.02L298.331 284.64V275.163H300.579V288.273H298.331L292.02 278.815V288.273H289.773Z" fill="white"/>
<g filter="url(#filter0_d_711_4635)">
<rect x="231.552" y="7.99902" width="45.0851" height="44.7329" rx="22.3664" fill="#111111" shape-rendering="crispEdges"/>
<rect x="232.085" y="8.53224" width="44.0187" height="43.6664" rx="21.8332" stroke="#E4B325" stroke-width="1.06643" shape-rendering="crispEdges"/>
<path d="M259.279 21.8621C258.996 21.8621 258.725 21.7498 258.525 21.5498C258.325 21.3498 258.212 21.0785 258.212 20.7957C258.212 20.5128 258.325 20.2416 258.525 20.0416C258.725 19.8416 258.996 19.7292 259.279 19.7292H263.544C263.827 19.7292 264.098 19.8416 264.298 20.0416C264.498 20.2416 264.611 20.5128 264.611 20.7957V25.0614C264.611 25.3442 264.498 25.6155 264.298 25.8155C264.098 26.0155 263.827 26.1278 263.544 26.1278C263.262 26.1278 262.99 26.0155 262.79 25.8155C262.59 25.6155 262.478 25.3442 262.478 25.0614V23.37L256.3 29.5479C256.1 29.7478 255.829 29.8601 255.546 29.8601C255.263 29.8601 254.992 29.7478 254.792 29.5479L251.814 26.5693L246.169 32.2139C245.968 32.4082 245.699 32.5157 245.419 32.5133C245.139 32.5108 244.872 32.3987 244.674 32.2009C244.476 32.0032 244.364 31.7357 244.362 31.4561C244.359 31.1765 244.467 30.9071 244.661 30.706L251.06 24.3074C251.26 24.1075 251.531 23.9952 251.814 23.9952C252.096 23.9952 252.368 24.1075 252.568 24.3074L255.546 27.286L260.97 21.8621H259.279ZM246.481 36.7921V39.9914C246.481 40.2742 246.369 40.5455 246.169 40.7455C245.969 40.9455 245.698 41.0578 245.415 41.0578C245.132 41.0578 244.861 40.9455 244.661 40.7455C244.461 40.5455 244.349 40.2742 244.349 39.9914V36.7921C244.349 36.5093 244.461 36.238 244.661 36.038C244.861 35.838 245.132 35.7257 245.415 35.7257C245.698 35.7257 245.969 35.838 246.169 36.038C246.369 36.238 246.481 36.5093 246.481 36.7921ZM251.814 32.5264C251.814 32.2436 251.701 31.9723 251.501 31.7723C251.301 31.5723 251.03 31.46 250.747 31.46C250.464 31.46 250.193 31.5723 249.993 31.7723C249.793 31.9723 249.681 32.2436 249.681 32.5264V39.9914C249.681 40.2742 249.793 40.5455 249.993 40.7455C250.193 40.9455 250.464 41.0578 250.747 41.0578C251.03 41.0578 251.301 40.9455 251.501 40.7455C251.701 40.5455 251.814 40.2742 251.814 39.9914V32.5264ZM256.079 33.5928C256.362 33.5928 256.633 33.7052 256.833 33.9052C257.033 34.1052 257.146 34.3764 257.146 34.6593V39.9914C257.146 40.2742 257.033 40.5455 256.833 40.7455C256.633 40.9455 256.362 41.0578 256.079 41.0578C255.797 41.0578 255.525 40.9455 255.325 40.7455C255.125 40.5455 255.013 40.2742 255.013 39.9914V34.6593C255.013 34.3764 255.125 34.1052 255.325 33.9052C255.525 33.7052 255.797 33.5928 256.079 33.5928ZM262.478 29.3271C262.478 29.0443 262.366 28.773 262.166 28.573C261.966 28.373 261.694 28.2607 261.412 28.2607C261.129 28.2607 260.857 28.373 260.657 28.573C260.457 28.773 260.345 29.0443 260.345 29.3271V39.9914C260.345 40.2742 260.457 40.5455 260.657 40.7455C260.857 40.9455 261.129 41.0578 261.412 41.0578C261.694 41.0578 261.966 40.9455 262.166 40.7455C262.366 40.5455 262.478 40.2742 262.478 39.9914V29.3271Z" fill="white"/>
</g>
<g filter="url(#filter1_d_711_4635)">
<rect x="231.552" y="435.637" width="45.0851" height="44.7329" rx="22.3664" fill="#111111" shape-rendering="crispEdges"/>
<rect x="232.085" y="436.17" width="44.0187" height="43.6664" rx="21.8332" stroke="#E4B325" stroke-width="1.06643" shape-rendering="crispEdges"/>
<path d="M253.947 465.498C254.171 465.498 254.378 465.392 254.793 465.181L258.131 463.485C259.608 462.735 260.346 462.359 260.346 461.765V454.3M253.947 465.498C253.723 465.498 253.517 465.392 253.102 465.181L249.764 463.485C248.287 462.735 247.549 462.359 247.549 461.765V454.3M253.947 465.498V458.033M260.346 454.3C260.346 453.706 259.608 453.33 258.131 452.58L254.793 450.884C254.378 450.673 254.171 450.568 253.947 450.568C253.723 450.568 253.517 450.673 253.102 450.884L249.764 452.58C248.287 453.331 247.549 453.706 247.549 454.3M260.346 454.3C260.346 454.894 259.608 455.271 258.131 456.02L254.793 457.716C254.378 457.927 254.17 458.033 253.947 458.033M247.549 454.3C247.549 454.894 248.287 455.271 249.764 456.02L253.102 457.716C253.517 457.927 253.725 458.033 253.947 458.033" stroke="white" stroke-width="1.59964" stroke-linecap="round" stroke-linejoin="round"/>
<path d="M255.217 468.245L260.222 465.822C262.437 464.751 263.545 464.214 263.545 463.365V452.701C263.545 451.852 262.437 451.315 260.222 450.244L255.217 447.821C254.594 447.519 254.282 447.368 253.947 447.368C253.613 447.368 253.301 447.519 252.678 447.821L247.673 450.244C245.458 451.314 244.35 451.852 244.35 452.701V463.365C244.35 464.214 245.458 464.75 247.673 465.822L252.678 468.245C253.301 468.547 253.613 468.697 253.947 468.697C254.282 468.697 254.594 468.547 255.217 468.245Z" stroke="white" stroke-width="1.59964" stroke-linecap="round" stroke-linejoin="round"/>
</g>
<g filter="url(#filter2_d_711_4635)">
<rect x="382.985" y="71.9849" width="45.0851" height="44.7329" rx="22.3664" fill="#111111" shape-rendering="crispEdges"/>
<rect x="383.519" y="72.5181" width="44.0187" height="43.6664" rx="21.8332" stroke="#E4B325" stroke-width="1.06643" shape-rendering="crispEdges"/>
<path d="M406.001 106C411.701 106 416.391 101.66 416.951 96.0995C417.011 95.5095 416.541 94.9995 415.951 94.9995C415.441 94.9995 415.011 95.3795 414.961 95.8795C414.521 100.44 410.671 104 406.001 104C402.881 104 400.131 102.41 398.521 99.9995H400.001C400.551 99.9995 401.001 99.5495 401.001 98.9995C401.001 98.4495 400.551 97.9995 400.001 97.9995H396.001C395.451 97.9995 395.001 98.4495 395.001 98.9995V103C395.001 103.55 395.451 104 396.001 104C396.551 104 397.001 103.55 397.001 103V101.33C398.991 104.15 402.281 106 406.001 106ZM406.001 83.9995C400.301 83.9995 395.611 88.3395 395.051 93.8995C395.001 94.4895 395.461 94.9995 396.051 94.9995C396.561 94.9995 396.991 94.6195 397.041 94.1195C397.481 89.5595 401.331 85.9995 406.001 85.9995C409.121 85.9995 411.871 87.5895 413.481 89.9995H412.001C411.451 89.9995 411.001 90.4495 411.001 90.9995C411.001 91.5495 411.451 91.9995 412.001 91.9995H416.001C416.551 91.9995 417.001 91.5495 417.001 90.9995V86.9995C417.001 86.4495 416.551 85.9995 416.001 85.9995C415.451 85.9995 415.001 86.4495 415.001 86.9995V88.6695C413.985 87.2262 412.638 86.0485 411.071 85.2357C409.505 84.4229 407.766 83.9989 406.001 83.9995ZM405.121 88.8795C405.121 88.3895 405.521 87.9995 406.001 87.9995C406.481 87.9995 406.881 88.3895 406.881 88.8795V89.2495C407.951 89.4395 408.631 90.0095 409.041 90.5495C409.381 90.9895 409.201 91.6295 408.681 91.8495C408.321 91.9995 407.901 91.8795 407.661 91.5695C407.381 91.1895 406.881 90.7995 406.061 90.7995C405.361 90.7995 404.251 91.1695 404.251 92.1895C404.251 93.1395 405.111 93.4995 406.891 94.0895C409.291 94.9195 409.901 96.1395 409.901 97.5395C409.901 100.16 407.401 100.67 406.881 100.76V101.13C406.881 101.61 406.491 102.01 406.001 102.01C405.511 102.01 405.121 101.62 405.121 101.13V100.71C404.491 100.56 403.191 100.1 402.431 98.6095C402.201 98.1695 402.461 97.5895 402.921 97.4095C403.331 97.2495 403.821 97.3995 404.031 97.7895C404.351 98.3995 404.981 99.1595 406.151 99.1595C407.081 99.1595 408.131 98.6795 408.131 97.5495C408.131 96.5895 407.431 96.0895 405.851 95.5195C404.751 95.1295 402.501 94.4895 402.501 92.2095C402.501 92.1095 402.511 89.8095 405.121 89.2495V88.8795Z" fill="white"/>
</g>
<g filter="url(#filter3_d_711_4635)">
<rect x="64.1221" y="360.987" width="45.0851" height="44.7329" rx="22.3664" fill="#111111" shape-rendering="crispEdges"/>
<rect x="64.6553" y="361.521" width="44.0187" height="43.6664" rx="21.8332" stroke="#E4B325" stroke-width="1.06643" shape-rendering="crispEdges"/>
<g clip-path="url(#clip0_711_4635)">
<path d="M95.049 385.515C95.3208 385.515 95.5823 385.619 95.7799 385.806C95.9776 385.993 96.0965 386.248 96.1124 386.519C96.1284 386.79 96.0401 387.057 95.8656 387.266C95.6912 387.474 95.4437 387.608 95.1738 387.64L95.049 387.648H80.5605L83.0058 390.093C83.1971 390.285 83.3081 390.543 83.3164 390.813C83.3247 391.084 83.2296 391.348 83.0504 391.551C82.8712 391.754 82.6213 391.882 82.3516 391.908C82.0819 391.933 81.8125 391.855 81.5981 391.69L81.4979 391.601L77.4135 387.517C76.7043 386.809 77.1586 385.615 78.1205 385.521L78.2432 385.515H95.049ZM90.0293 375.163C90.213 374.98 90.4573 374.869 90.7165 374.853C90.9756 374.837 91.2318 374.915 91.437 375.075L91.5373 375.163L95.6217 379.248C96.3309 379.956 95.8766 381.149 94.9146 381.243L94.792 381.249H77.9861C77.7143 381.249 77.4529 381.145 77.2552 380.958C77.0576 380.772 76.9387 380.517 76.9227 380.245C76.9068 379.974 76.9951 379.707 77.1695 379.498C77.344 379.29 77.5915 379.156 77.8614 379.124L77.9861 379.116H92.4747L90.0293 376.671C89.8294 376.471 89.7171 376.2 89.7171 375.917C89.7171 375.634 89.8294 375.363 90.0293 375.163Z" fill="white"/>
</g>
</g>
<g filter="url(#filter4_d_711_4635)">
<rect x="79.0527" y="67.7192" width="45.0851" height="44.7329" rx="22.3664" fill="#111111" shape-rendering="crispEdges"/>
<rect x="79.5859" y="68.2525" width="44.0187" height="43.6664" rx="21.8332" stroke="#E4B325" stroke-width="1.06643" shape-rendering="crispEdges"/>
<path d="M91.8496 84.7821V82.6492C91.8496 82.0835 92.0743 81.541 92.4743 81.1411C92.8743 80.7411 93.4168 80.5164 93.9825 80.5164H96.1153M106.78 80.5164H108.912C109.478 80.5164 110.021 80.7411 110.421 81.1411C110.821 81.541 111.045 82.0835 111.045 82.6492V84.7821M111.045 95.4464V97.5792C111.045 98.1449 110.821 98.6874 110.421 99.0874C110.021 99.4874 109.478 99.7121 108.912 99.7121H106.78M96.1153 99.7121H93.9825C93.4168 99.7121 92.8743 99.4874 92.4743 99.0874C92.0743 98.6874 91.8496 98.1449 91.8496 97.5792V95.4464M97.1818 84.7821V95.4464M101.447 84.7821V95.4464M106.78 84.7821V95.4464" stroke="white" stroke-width="2.13286" stroke-linecap="round" stroke-linejoin="round"/>
</g>
<g filter="url(#filter5_d_711_4635)">
<rect x="377.652" y="373.784" width="45.0851" height="44.7329" rx="22.3664" fill="#111111" shape-rendering="crispEdges"/>
<rect x="378.186" y="374.318" width="44.0187" height="43.6664" rx="21.8332" stroke="#E4B325" stroke-width="1.06643" shape-rendering="crispEdges"/>
<path d="M401.114 390.047C401.114 390.33 401.001 390.601 400.801 390.801C400.601 391.001 400.33 391.114 400.047 391.114C399.764 391.114 399.493 391.001 399.293 390.801C399.093 390.601 398.981 390.33 398.981 390.047C398.981 389.764 399.093 389.493 399.293 389.293C399.493 389.093 399.764 388.981 400.047 388.981C400.33 388.981 400.601 389.093 400.801 389.293C401.001 389.493 401.114 389.764 401.114 390.047ZM401.148 385.861C400.828 385.628 400.443 385.502 400.047 385.502C399.651 385.502 399.266 385.628 398.947 385.861L391.033 391.636C389.99 392.397 390.528 394.046 391.817 394.046H392.049V400.232C391.567 400.477 391.163 400.851 390.881 401.313C390.598 401.774 390.449 402.304 390.449 402.844V404.444C390.449 404.884 390.808 405.244 391.249 405.244H408.845C409.057 405.244 409.261 405.16 409.411 405.01C409.561 404.86 409.645 404.656 409.645 404.444V402.844C409.645 402.304 409.496 401.774 409.213 401.313C408.931 400.851 408.527 400.477 408.045 400.232V394.046H408.277C409.567 394.046 410.104 392.397 409.062 391.636L401.148 385.861ZM399.889 387.153C399.935 387.12 399.99 387.102 400.047 387.102C400.103 387.102 400.158 387.12 400.204 387.153L407.459 392.447H392.635L399.889 387.153ZM406.446 394.046V399.912H404.313V394.046H406.446ZM402.713 394.046V399.912H400.847V394.046H402.713ZM399.247 394.046V399.912H397.381V394.046H399.247ZM393.382 401.511H406.712C407.448 401.511 408.045 402.109 408.045 402.844V403.644H392.049V402.844C392.049 402.109 392.646 401.511 393.382 401.511ZM393.649 399.912V394.046H395.781V399.912H393.649Z" fill="white"/>
</g>
<g filter="url(#filter6_d_711_4635)">
<rect x="441.639" y="217.019" width="45.0851" height="44.7329" rx="22.3664" fill="#111111" shape-rendering="crispEdges"/>
<rect x="442.172" y="217.553" width="44.0187" height="43.6664" rx="21.8332" stroke="#E4B325" stroke-width="1.06643" shape-rendering="crispEdges"/>
<path d="M456.125 237.5V231.5M458 231.5V230M458 239V237.5M456.125 234.5H459.875M459.875 234.5C460.496 234.5 461 235.004 461 235.625V236.375C461 236.996 460.496 237.5 459.875 237.5H455M459.875 234.5C460.496 234.5 461 233.996 461 233.375V232.625C461 232.004 460.496 231.5 459.875 231.5H455M467 245.5L470 241L473 245.5M467 245.5L470 250L473 245.5M467 245.5L470 246.625L473 245.5M464 233C466.828 233 469.243 233 470.121 233.799C470.999 234.598 471 235.429 471 238L469 237M464 247C461.172 247 458.757 247 457.879 246.201C457.001 245.402 457 244.571 457 242L459 243" stroke="white" stroke-width="1.5" stroke-linecap="round" stroke-linejoin="round"/>
</g>
<g filter="url(#filter7_d_711_4635)">
<rect x="14" y="217.019" width="45.0851" height="44.7329" rx="22.3664" fill="#111111" shape-rendering="crispEdges"/>
<rect x="14.5332" y="217.553" width="44.0187" height="43.6664" rx="21.8332" stroke="#E4B325" stroke-width="1.06643" shape-rendering="crispEdges"/>
<g clip-path="url(#clip1_711_4635)">
<path d="M37.0009 228.75L45.4039 230.617C45.8719 230.722 46.2049 231.136 46.2049 231.616V241.83C46.2049 242.84 45.9556 243.834 45.4791 244.724C45.0026 245.615 44.3136 246.374 43.4734 246.934L37.0009 251.25L30.5284 246.934C29.6881 246.374 28.9991 245.615 28.5226 244.724C28.0462 243.834 27.7969 242.84 27.7969 241.83V231.615C27.7969 231.136 28.1299 230.721 28.5979 230.617L37.0009 228.75ZM37.0009 230.845L29.8414 232.435V241.83C29.8414 243.198 30.5254 244.474 31.6639 245.233L37.0009 248.79L42.3379 245.232C42.8983 244.858 43.3578 244.352 43.6757 243.758C43.9937 243.164 44.1601 242.5 44.1604 241.827V232.438L37.0009 230.845ZM37.0009 234.885C37.4508 234.885 37.888 235.034 38.2449 235.308C38.6018 235.582 38.8585 235.966 38.9751 236.4C39.0918 236.835 39.062 237.296 38.8903 237.712C38.7186 238.127 38.4146 238.475 38.0254 238.701L38.0239 243.066H35.9779V238.701C35.5891 238.475 35.2855 238.128 35.1139 237.712C34.9424 237.297 34.9126 236.837 35.0291 236.402C35.1455 235.968 35.4018 235.585 35.7582 235.311C36.1147 235.037 36.5514 234.888 37.0009 234.888V234.885Z" fill="white"/>
</g>
</g>
<defs>
<filter id="filter0_d_711_4635" x="217.996" y="-5.55639" width="72.1958" height="71.8437" filterUnits="userSpaceOnUse" color-interpolation-filters="sRGB">
<feFlood flood-opacity="0" result="BackgroundImageFix"/>
<feColorMatrix in="SourceAlpha" type="matrix" values="0 0 0 0 0 0 0 0 0 0 0 0 0 0 0 0 0 0 127 0" result="hardAlpha"/>
<feOffset/>
<feGaussianBlur stdDeviation="6.77771"/>
<feComposite in2="hardAlpha" operator="out"/>
<feColorMatrix type="matrix" values="0 0 0 0 0.894118 0 0 0 0 0.701961 0 0 0 0 0.145098 0 0 0 0.45 0"/>
<feBlend mode="normal" in2="BackgroundImageFix" result="effect1_dropShadow_711_4635"/>
<feBlend mode="normal" in="SourceGraphic" in2="effect1_dropShadow_711_4635" result="shape"/>
</filter>
<filter id="filter1_d_711_4635" x="217.996" y="422.082" width="72.1958" height="71.8437" filterUnits="userSpaceOnUse" color-interpolation-filters="sRGB">
<feFlood flood-opacity="0" result="BackgroundImageFix"/>
<feColorMatrix in="SourceAlpha" type="matrix" values="0 0 0 0 0 0 0 0 0 0 0 0 0 0 0 0 0 0 127 0" result="hardAlpha"/>
<feOffset/>
<feGaussianBlur stdDeviation="6.77771"/>
<feComposite in2="hardAlpha" operator="out"/>
<feColorMatrix type="matrix" values="0 0 0 0 0.894118 0 0 0 0 0.701961 0 0 0 0 0.145098 0 0 0 0.45 0"/>
<feBlend mode="normal" in2="BackgroundImageFix" result="effect1_dropShadow_711_4635"/>
<feBlend mode="normal" in="SourceGraphic" in2="effect1_dropShadow_711_4635" result="shape"/>
</filter>
<filter id="filter2_d_711_4635" x="369.43" y="58.4295" width="72.1958" height="71.8437" filterUnits="userSpaceOnUse" color-interpolation-filters="sRGB">
<feFlood flood-opacity="0" result="BackgroundImageFix"/>
<feColorMatrix in="SourceAlpha" type="matrix" values="0 0 0 0 0 0 0 0 0 0 0 0 0 0 0 0 0 0 127 0" result="hardAlpha"/>
<feOffset/>
<feGaussianBlur stdDeviation="6.77771"/>
<feComposite in2="hardAlpha" operator="out"/>
<feColorMatrix type="matrix" values="0 0 0 0 0.894118 0 0 0 0 0.701961 0 0 0 0 0.145098 0 0 0 0.45 0"/>
<feBlend mode="normal" in2="BackgroundImageFix" result="effect1_dropShadow_711_4635"/>
<feBlend mode="normal" in="SourceGraphic" in2="effect1_dropShadow_711_4635" result="shape"/>
</filter>
<filter id="filter3_d_711_4635" x="50.5667" y="347.432" width="72.1958" height="71.8437" filterUnits="userSpaceOnUse" color-interpolation-filters="sRGB">
<feFlood flood-opacity="0" result="BackgroundImageFix"/>
<feColorMatrix in="SourceAlpha" type="matrix" values="0 0 0 0 0 0 0 0 0 0 0 0 0 0 0 0 0 0 127 0" result="hardAlpha"/>
<feOffset/>
<feGaussianBlur stdDeviation="6.77771"/>
<feComposite in2="hardAlpha" operator="out"/>
<feColorMatrix type="matrix" values="0 0 0 0 0.894118 0 0 0 0 0.701961 0 0 0 0 0.145098 0 0 0 0.45 0"/>
<feBlend mode="normal" in2="BackgroundImageFix" result="effect1_dropShadow_711_4635"/>
<feBlend mode="normal" in="SourceGraphic" in2="effect1_dropShadow_711_4635" result="shape"/>
</filter>
<filter id="filter4_d_711_4635" x="65.4973" y="54.1638" width="72.1958" height="71.8437" filterUnits="userSpaceOnUse" color-interpolation-filters="sRGB">
<feFlood flood-opacity="0" result="BackgroundImageFix"/>
<feColorMatrix in="SourceAlpha" type="matrix" values="0 0 0 0 0 0 0 0 0 0 0 0 0 0 0 0 0 0 127 0" result="hardAlpha"/>
<feOffset/>
<feGaussianBlur stdDeviation="6.77771"/>
<feComposite in2="hardAlpha" operator="out"/>
<feColorMatrix type="matrix" values="0 0 0 0 0.894118 0 0 0 0 0.701961 0 0 0 0 0.145098 0 0 0 0.45 0"/>
<feBlend mode="normal" in2="BackgroundImageFix" result="effect1_dropShadow_711_4635"/>
<feBlend mode="normal" in="SourceGraphic" in2="effect1_dropShadow_711_4635" result="shape"/>
</filter>
<filter id="filter5_d_711_4635" x="364.097" y="360.229" width="72.1958" height="71.8437" filterUnits="userSpaceOnUse" color-interpolation-filters="sRGB">
<feFlood flood-opacity="0" result="BackgroundImageFix"/>
<feColorMatrix in="SourceAlpha" type="matrix" values="0 0 0 0 0 0 0 0 0 0 0 0 0 0 0 0 0 0 127 0" result="hardAlpha"/>
<feOffset/>
<feGaussianBlur stdDeviation="6.77771"/>
<feComposite in2="hardAlpha" operator="out"/>
<feColorMatrix type="matrix" values="0 0 0 0 0.894118 0 0 0 0 0.701961 0 0 0 0 0.145098 0 0 0 0.45 0"/>
<feBlend mode="normal" in2="BackgroundImageFix" result="effect1_dropShadow_711_4635"/>
<feBlend mode="normal" in="SourceGraphic" in2="effect1_dropShadow_711_4635" result="shape"/>
</filter>
<filter id="filter6_d_711_4635" x="428.083" y="203.464" width="72.1958" height="71.8437" filterUnits="userSpaceOnUse" color-interpolation-filters="sRGB">
<feFlood flood-opacity="0" result="BackgroundImageFix"/>
<feColorMatrix in="SourceAlpha" type="matrix" values="0 0 0 0 0 0 0 0 0 0 0 0 0 0 0 0 0 0 127 0" result="hardAlpha"/>
<feOffset/>
<feGaussianBlur stdDeviation="6.77771"/>
<feComposite in2="hardAlpha" operator="out"/>
<feColorMatrix type="matrix" values="0 0 0 0 0.894118 0 0 0 0 0.701961 0 0 0 0 0.145098 0 0 0 0.45 0"/>
<feBlend mode="normal" in2="BackgroundImageFix" result="effect1_dropShadow_711_4635"/>
<feBlend mode="normal" in="SourceGraphic" in2="effect1_dropShadow_711_4635" result="shape"/>
</filter>
<filter id="filter7_d_711_4635" x="0.44459" y="203.464" width="72.1958" height="71.8437" filterUnits="userSpaceOnUse" color-interpolation-filters="sRGB">
<feFlood flood-opacity="0" result="BackgroundImageFix"/>
<feColorMatrix in="SourceAlpha" type="matrix" values="0 0 0 0 0 0 0 0 0 0 0 0 0 0 0 0 0 0 127 0" result="hardAlpha"/>
<feOffset/>
<feGaussianBlur stdDeviation="6.77771"/>
<feComposite in2="hardAlpha" operator="out"/>
<feColorMatrix type="matrix" values="0 0 0 0 0.894118 0 0 0 0 0.701961 0 0 0 0 0.145098 0 0 0 0.45 0"/>
<feBlend mode="normal" in2="BackgroundImageFix" result="effect1_dropShadow_711_4635"/>
<feBlend mode="normal" in="SourceGraphic" in2="effect1_dropShadow_711_4635" result="shape"/>
</filter>
<radialGradient id="paint0_angular_711_4635" cx="0" cy="0" r="1" gradientUnits="userSpaceOnUse" gradientTransform="translate(250.215 244.213) rotate(90) scale(167.963)">
<stop offset="0.0333167" stop-color="#FFBE00"/>
<stop offset="0.250436" stop-color="#EEDF55"/>
<stop offset="0.635876" stop-color="#C49100"/>
</radialGradient>
<linearGradient id="paint1_linear_711_4635" x1="250.215" y1="30.394" x2="250.215" y2="547.612" gradientUnits="userSpaceOnUse">
<stop stop-color="white"/>
<stop offset="0.315977"/>
<stop offset="0.658559" stop-color="white"/>
<stop offset="0.836744"/>
</linearGradient>
<linearGradient id="paint2_linear_711_4635" x1="308.335" y1="410.042" x2="162.234" y2="394.046" gradientUnits="userSpaceOnUse">
<stop/>
<stop offset="0.0948255"/>
<stop offset="0.475048" stop-color="white"/>
<stop offset="0.789269"/>
<stop offset="1"/>
</linearGradient>
<linearGradient id="paint3_linear_711_4635" x1="360.59" y1="110.376" x2="382.985" y2="374.851" gradientUnits="userSpaceOnUse">
<stop/>
<stop offset="0.268387"/>
<stop offset="0.54908" stop-color="white"/>
<stop offset="0.869415"/>
<stop offset="1"/>
</linearGradient>
<linearGradient id="paint4_linear_711_4635" x1="430.975" y1="207.422" x2="344.594" y2="228.751" gradientUnits="userSpaceOnUse">
<stop/>
<stop offset="0.377892"/>
<stop offset="0.756272" stop-color="white"/>
<stop offset="1"/>
</linearGradient>
<linearGradient id="paint5_linear_711_4635" x1="249.681" y1="61.3205" x2="90.7832" y2="337.526" gradientUnits="userSpaceOnUse">
<stop/>
<stop offset="0.106021"/>
<stop offset="0.216034" stop-color="#FEFEFE" stop-opacity="0.402882"/>
<stop offset="0.406174"/>
<stop offset="0.511162"/>
<stop offset="0.717635" stop-color="white" stop-opacity="0.4"/>
<stop offset="0.865008"/>
<stop offset="1"/>
</linearGradient>
<linearGradient id="paint6_linear_711_4635" x1="194.227" y1="76.2505" x2="231.552" y2="174.895" gradientUnits="userSpaceOnUse">
<stop/>
<stop offset="0.237557"/>
<stop offset="0.492004" stop-color="#999999"/>
<stop offset="0.871545"/>
<stop offset="1"/>
</linearGradient>
<linearGradient id="paint7_linear_711_4635" x1="75.8535" y1="202.089" x2="202.759" y2="255.411" gradientUnits="userSpaceOnUse">
<stop offset="0.231488"/>
<stop offset="0.638878" stop-color="white"/>
<stop offset="0.780851"/>
</linearGradient>
<clipPath id="clip0_711_4635">
<rect width="25.5943" height="25.5943" fill="white" transform="translate(73.7217 370.586)"/>
</clipPath>
<clipPath id="clip1_711_4635">
<rect width="24" height="24" fill="white" transform="translate(25 228)"/>
</clipPath>
</defs>
</svg>
