<svg width="21" height="22" viewBox="0 0 21 22" fill="none" xmlns="http://www.w3.org/2000/svg">
<path d="M10.4531 21.3516C16.0995 21.3516 20.6768 16.7743 20.6768 11.128C20.6768 5.48158 16.0995 0.904297 10.4531 0.904297C4.80678 0.904297 0.229492 5.48158 0.229492 11.128C0.229492 16.7743 4.80678 21.3516 10.4531 21.3516Z" fill="#627EEA"/>
<path d="M10.665 3.45996V9.00175L15.349 11.0948L10.665 3.45996Z" fill="white" fill-opacity="0.602"/>
<path d="M10.666 3.45996L5.98145 11.0948L10.666 9.00175V3.45996Z" fill="white"/>
<path d="M10.665 14.6858V18.4514L15.3521 11.9668L10.665 14.6858Z" fill="white" fill-opacity="0.602"/>
<path d="M10.666 18.4514V14.6852L5.98145 11.9668L10.666 18.4514Z" fill="white"/>
<path d="M10.665 13.8144L15.349 11.0947L10.665 9.00293V13.8144Z" fill="white" fill-opacity="0.2"/>
<path d="M5.98145 11.0947L10.666 13.8144V9.00293L5.98145 11.0947Z" fill="white" fill-opacity="0.602"/>
</svg>
