<svg width="160" height="42" viewBox="0 0 160 42" fill="none" xmlns="http://www.w3.org/2000/svg">
<mask id="mask0_594_528" style="mask-type:luminance" maskUnits="userSpaceOnUse" x="0" y="0" width="42" height="42">
<path d="M0 0.5H41.0268V41.5268H0V0.5Z" fill="white"/>
</mask>
<g mask="url(#mask0_594_528)">
<path d="M20.4678 41.4845C26.1646 41.4845 31.2473 39.1568 34.9765 35.4765C38.7056 31.7463 40.9845 26.6147 40.9845 20.9678C40.9845 16.1963 39.3293 11.7947 36.5829 8.32811L35.4928 10.4508C37.5667 13.4586 38.813 17.0825 38.813 20.9678C38.813 26.0409 36.7391 30.6073 33.4275 33.9189C30.116 37.2304 25.5495 39.3043 20.4765 39.3043C15.4512 39.3043 10.837 37.2304 7.52548 33.9189C4.21397 30.6073 2.18888 26.0409 2.18888 20.9678C2.18888 17.0825 3.37768 13.451 5.50907 10.4508L4.3528 8.31943C1.6563 11.7947 0 16.1963 0 20.9678C0 26.6147 2.2789 31.7463 6.00802 35.4765C9.68941 39.1568 14.8199 41.4845 20.4678 41.4845ZM10.312 5.72922L23.8856 29.0498L22.853 31.0174L8.81191 6.86922C8.6069 7.02433 8.39431 7.22933 8.1893 7.44301L21.5579 33.6076L20.4678 35.6804L6.78682 8.84441L5.69672 6.77051C5.8041 6.66421 5.90172 6.56551 6.00802 6.50802C9.68941 2.7789 14.8199 0.5 20.4678 0.5C26.1646 0.5 31.2473 2.7789 34.9765 6.50802C35.0828 6.55683 35.1815 6.66421 35.2878 6.77051L34.714 7.80312L34.1977 8.83573L26.8945 23.1893L25.7057 21.3778L32.8039 7.44301C32.5989 7.23801 32.3863 7.02433 32.1812 6.86922L24.6644 19.8202L23.4756 18.0576L30.6811 5.72922C30.4761 5.57411 30.2635 5.46673 30.0585 5.31162L22.5992 16.6562L21.4592 14.9425L28.3946 4.43412C26.0094 3.29521 23.3205 2.67152 20.4678 2.67152C17.6726 2.67152 14.9761 3.29521 12.5909 4.43412L26.0094 24.8531L25.0256 26.8197L10.9346 5.31921C10.722 5.47541 10.517 5.57411 10.312 5.72922Z" fill="#E3B425"/>
</g>
<path d="M56.6861 28.0134L51.5461 14.0134H54.1261L58.1461 25.5534L62.2261 14.0134H64.7661L59.6061 28.0134H56.6861ZM70.5323 28.0134V14.0134H79.5723V15.9534H72.9323V19.9734H78.9723V21.8734H72.9323V26.0734H79.5723V28.0134H70.5323ZM90.7948 28.2534C89.7815 28.2534 88.8815 28.0734 88.0948 27.7134C87.3081 27.3534 86.6948 26.8401 86.2548 26.1734C85.8148 25.5068 85.5881 24.7134 85.5748 23.7934H88.1148C88.1148 24.2601 88.2215 24.6801 88.4348 25.0534C88.6615 25.4134 88.9681 25.7001 89.3548 25.9134C89.7548 26.1268 90.2348 26.2334 90.7948 26.2334C91.2748 26.2334 91.6881 26.1601 92.0348 26.0134C92.3948 25.8534 92.6681 25.6334 92.8548 25.3534C93.0548 25.0601 93.1548 24.7201 93.1548 24.3334C93.1548 23.8934 93.0481 23.5334 92.8348 23.2534C92.6348 22.9601 92.3548 22.7134 91.9948 22.5134C91.6348 22.3134 91.2215 22.1401 90.7548 21.9934C90.2881 21.8334 89.7948 21.6668 89.2748 21.4934C88.1681 21.1201 87.3348 20.6468 86.7748 20.0734C86.2148 19.4868 85.9348 18.7068 85.9348 17.7334C85.9348 16.9201 86.1281 16.2201 86.5148 15.6334C86.9015 15.0468 87.4415 14.5934 88.1348 14.2734C88.8415 13.9401 89.6548 13.7734 90.5748 13.7734C91.5081 13.7734 92.3215 13.9401 93.0148 14.2734C93.7215 14.6068 94.2748 15.0734 94.6748 15.6734C95.0881 16.2601 95.3015 16.9668 95.3148 17.7934H92.7548C92.7415 17.4468 92.6481 17.1268 92.4748 16.8334C92.3015 16.5268 92.0481 16.2801 91.7148 16.0934C91.3948 15.8934 91.0015 15.7934 90.5348 15.7934C90.1348 15.7801 89.7748 15.8468 89.4548 15.9934C89.1481 16.1268 88.9015 16.3268 88.7148 16.5934C88.5415 16.8468 88.4548 17.1668 88.4548 17.5534C88.4548 17.9268 88.5348 18.2401 88.6948 18.4934C88.8681 18.7334 89.1148 18.9401 89.4348 19.1134C89.7548 19.2734 90.1281 19.4268 90.5548 19.5734C90.9815 19.7201 91.4481 19.8801 91.9548 20.0534C92.6481 20.2801 93.2748 20.5601 93.8348 20.8934C94.4081 21.2134 94.8615 21.6334 95.1948 22.1534C95.5281 22.6734 95.6948 23.3468 95.6948 24.1734C95.6948 24.8934 95.5081 25.5668 95.1348 26.1934C94.7615 26.8068 94.2148 27.3068 93.4948 27.6934C92.7748 28.0668 91.8748 28.2534 90.7948 28.2534ZM105.093 28.0134V15.9534H100.973V14.0134H111.593V15.9534H107.473V28.0134H105.093ZM117.571 28.0134V14.0134H119.971V28.0134H117.571ZM133.166 28.2534C131.82 28.2534 130.626 27.9534 129.586 27.3534C128.56 26.7401 127.753 25.8934 127.166 24.8134C126.58 23.7201 126.286 22.4534 126.286 21.0134C126.286 19.5868 126.58 18.3334 127.166 17.2534C127.753 16.1601 128.56 15.3068 129.586 14.6934C130.626 14.0801 131.82 13.7734 133.166 13.7734C134.54 13.7734 135.746 14.0801 136.786 14.6934C137.826 15.3068 138.633 16.1601 139.206 17.2534C139.78 18.3334 140.066 19.5868 140.066 21.0134C140.066 22.4534 139.78 23.7201 139.206 24.8134C138.633 25.8934 137.826 26.7401 136.786 27.3534C135.746 27.9534 134.54 28.2534 133.166 28.2534ZM133.186 26.0934C134.08 26.0934 134.86 25.8934 135.526 25.4934C136.193 25.0801 136.706 24.4934 137.066 23.7334C137.426 22.9734 137.606 22.0668 137.606 21.0134C137.606 19.9601 137.426 19.0534 137.066 18.2934C136.706 17.5334 136.193 16.9534 135.526 16.5534C134.86 16.1401 134.08 15.9334 133.186 15.9334C132.293 15.9334 131.513 16.1401 130.846 16.5534C130.18 16.9534 129.66 17.5334 129.286 18.2934C128.926 19.0534 128.746 19.9601 128.746 21.0134C128.746 22.0668 128.926 22.9734 129.286 23.7334C129.66 24.4934 130.18 25.0801 130.846 25.4934C131.513 25.8934 132.293 26.0934 133.186 26.0934ZM146.411 28.0134V14.0134H148.811L155.551 24.1334V14.0134H157.951V28.0134H155.551L148.811 17.9134V28.0134H146.411Z" fill="white"/>
</svg>
