<svg width="24" height="24" viewBox="0 0 24 24" fill="none" xmlns="http://www.w3.org/2000/svg">
<path d="M12.0009 0.75L20.4039 2.6175C20.8719 2.7225 21.2049 3.1365 21.2049 3.6165V13.83C21.2049 14.8399 20.9556 15.8343 20.4791 16.7247C20.0026 17.6152 19.3136 18.3742 18.4734 18.9345L12.0009 23.25L5.52837 18.9345C4.68811 18.3742 3.99915 17.6152 3.52265 16.7247C3.04615 15.8343 2.79685 14.8399 2.79688 13.83V3.615C2.79688 3.1365 3.12988 2.721 3.59788 2.6175L12.0009 0.75ZM12.0009 2.8455L4.84138 4.4355V13.83C4.84138 15.198 5.52538 16.4745 6.66388 17.2335L12.0009 20.79L17.3379 17.232C17.8983 16.8581 18.3578 16.3518 18.6757 15.7578C18.9937 15.1639 19.1601 14.5007 19.1604 13.827V4.4385L12.0009 2.8455ZM12.0009 6.885C12.4508 6.88539 12.888 7.03407 13.2449 7.30803C13.6018 7.58199 13.8585 7.96595 13.9751 8.40049C14.0918 8.83502 14.062 9.29589 13.8903 9.71176C13.7186 10.1276 13.4146 10.4753 13.0254 10.701L13.0239 15.066H10.9779V10.701C10.5891 10.4755 10.2855 10.1281 10.1139 9.71267C9.94243 9.29721 9.9126 8.83682 10.0291 8.40271C10.1455 7.9686 10.4018 7.58497 10.7582 7.31116C11.1147 7.03735 11.5514 6.88863 12.0009 6.888V6.885Z" fill="white"/>
</svg>
