<svg width="22" height="18" viewBox="0 0 22 18" fill="none" xmlns="http://www.w3.org/2000/svg">
<path d="M21.2131 2.65593C20.4496 2.99339 19.64 3.21517 18.8111 3.31393C19.6839 2.79072 20.337 1.96845 20.6491 0.999927C19.8291 1.48793 18.9301 1.82993 17.9941 2.01493C17.3647 1.34151 16.5305 0.89489 15.6211 0.744511C14.7117 0.594133 13.7781 0.748418 12.9654 1.18338C12.1527 1.61834 11.5065 2.30961 11.1272 3.14972C10.748 3.98983 10.6569 4.93171 10.8681 5.82893C9.20501 5.74597 7.57796 5.31401 6.09269 4.56113C4.60743 3.80825 3.29719 2.75128 2.24713 1.45893C1.8755 2.09741 1.68018 2.82317 1.68113 3.56193C1.68113 5.01193 2.42012 6.29293 3.54112 7.04293C2.87732 7.0208 2.22822 6.84156 1.64713 6.51993V6.57093C1.64709 7.5368 1.98116 8.47295 2.59266 9.2206C3.20415 9.96825 4.05544 10.4814 5.00212 10.6729C4.38579 10.8403 3.73941 10.8649 3.11212 10.7449C3.37905 11.5763 3.89934 12.3034 4.60012 12.8243C5.30091 13.3453 6.14708 13.6339 7.02013 13.6499C6.15232 14.3311 5.15883 14.8346 4.0964 15.1318C3.03397 15.429 1.9234 15.514 0.828125 15.3819C2.73982 16.6114 4.96522 17.264 7.23812 17.2619C14.9321 17.2619 19.1381 10.8889 19.1381 5.36193C19.1381 5.18126 19.1341 5.00093 19.1261 4.82093C19.9445 4.22924 20.6509 3.49645 21.2121 2.65693" fill="white"/>
</svg>
