<svg width="21" height="22" viewBox="0 0 21 22" fill="none" xmlns="http://www.w3.org/2000/svg">
<circle cx="10.7862" cy="10.9007" r="10.2237" fill="#E4B325"/>
<path d="M10.7752 19.4203C13.1436 19.4203 15.2568 18.4525 16.8072 16.9224C18.3576 15.3716 19.305 13.2381 19.305 10.8904C19.305 8.90666 18.6169 7.07668 17.4751 5.63542L17.0219 6.51794C17.8841 7.76845 18.4022 9.2751 18.4022 10.8904C18.4022 12.9996 17.54 14.8981 16.1632 16.2749C14.7865 17.6516 12.8879 18.5139 10.7788 18.5139C8.68951 18.5139 6.77114 17.6516 5.39437 16.2749C4.01759 14.8981 3.17566 12.9996 3.17566 10.8904C3.17566 9.2751 3.66991 7.76529 4.55604 6.51794L4.07532 5.63181C2.95424 7.07668 2.26562 8.90666 2.26562 10.8904C2.26562 13.2381 3.21309 15.3716 4.76348 16.9224C6.29403 18.4525 8.42706 19.4203 10.7752 19.4203ZM6.55288 4.55492L12.1962 14.2505L11.7668 15.0685L5.9292 5.02888C5.84397 5.09337 5.75558 5.1786 5.67035 5.26744L11.2284 16.1454L10.7752 17.0072L5.08727 5.85007L4.63405 4.98784C4.6787 4.94365 4.71928 4.90261 4.76348 4.87871C6.29403 3.32832 8.42706 2.38086 10.7752 2.38086C13.1436 2.38086 15.2568 3.32832 16.8072 4.87871C16.8514 4.89901 16.8924 4.94365 16.9366 4.98784L16.6981 5.41716L16.4834 5.84647L13.4471 11.814L12.9529 11.0609L15.9039 5.26744C15.8187 5.18221 15.7303 5.09337 15.6451 5.02888L12.5199 10.4133L12.0257 9.68051L15.0214 4.55492C14.9362 4.49044 14.8478 4.44579 14.7626 4.38131L11.6613 9.09787L11.1874 8.38536L14.0708 4.01648C13.0791 3.54298 11.9612 3.28368 10.7752 3.28368C9.61307 3.28368 8.49199 3.54298 7.50034 4.01648L13.0791 12.5058L12.6701 13.3233L6.81173 4.38446C6.72334 4.4494 6.63811 4.49044 6.55288 4.55492Z" fill="white"/>
</svg>
